<?xml version="1.0" encoding="UTF-8"?>
<!-- Generator: visioncortex VTracer 0.6.5 -->
<svg version="1.1" xmlns="http://www.w3.org/2000/svg" viewBox="0 0 382 130" preserveAspectRatio="xMidYMid meet">
<path d="M0 0 C1.395 0.007 2.789 0.019 4.184 0.035 C4.539 0.037 4.539 0.037 6.338 0.049 C8.099 0.061 9.86 0.079 11.621 0.098 C11.714 11.738 11.785 23.378 11.828 35.019 C11.849 40.425 11.877 45.831 11.923 51.238 C11.967 56.464 11.99 61.689 12.001 66.916 C12.008 68.901 12.022 70.886 12.044 72.87 C12.211 88.79 11.242 101.383 0.621 114.098 C0.024 114.818 -0.573 115.539 -1.188 116.281 C-8.649 124.488 -19.619 129.795 -30.727 130.469 C-44.682 130.831 -56.75 128.891 -67.379 119.098 C-67.692 118.813 -67.692 118.813 -69.273 117.371 C-78.388 108.66 -83.473 97.817 -83.875 85.194 C-83.896 70.9 -79.798 60.028 -70.379 49.098 C-58.944 39.019 -47.048 35.019 -31.914 35.68 C-22.138 36.404 -12.435 40.042 -5.379 47.098 C-5.369 46.524 -5.358 45.95 -5.348 45.358 C-5.24 39.405 -5.125 33.452 -5.007 27.499 C-4.963 25.275 -4.922 23.051 -4.882 20.826 C-4.824 17.637 -4.76 14.447 -4.695 11.258 C-4.679 10.257 -4.662 9.256 -4.645 8.224 C-4.625 7.304 -4.605 6.383 -4.584 5.434 C-4.569 4.619 -4.553 3.804 -4.537 2.964 C-4.254 -0.381 -3.467 0.1 0 0 Z M-62.379 64.098 C-67.667 72.058 -68.289 80.787 -67.379 90.098 C-65.693 97.862 -61.334 103.936 -55.379 109.098 C-46.934 114.484 -38.307 116.546 -28.445 114.484 C-19.959 112.03 -13.504 108.089 -8.75 100.496 C-4.149 91.609 -2.643 82.313 -5.379 72.473 C-9.163 62.864 -15.547 57.316 -24.645 53.156 C-39.099 47.56 -52.414 52.818 -62.379 64.098 Z " fill="#22262E" transform="translate(83.37890625,-0.09765625)"/>
<path d="M0 0 C0.061 -0.638 0.121 -1.276 0.184 -1.934 C0.225 -2.347 0.225 -2.347 0.438 -4.438 C0.478 -4.849 0.478 -4.849 0.684 -6.934 C1 -9 1 -9 2 -10 C6.95 -10 11.9 -10 17 -10 C17 20.69 17 51.38 17 83 C12.05 83 7.1 83 2 83 C1 82 1 82 0.902 79.715 C0.914 78.798 0.926 77.882 0.938 76.938 C0.947 76.018 0.956 75.099 0.965 74.152 C0.976 73.442 0.988 72.732 1 72 C0.287 72.471 -0.426 72.941 -1.16 73.426 C-14.203 81.905 -27.054 85.59 -42.652 82.352 C-50.142 80.268 -56.037 76.95 -62 72 C-62.636 71.488 -63.271 70.976 -63.926 70.449 C-72.315 62.953 -77.56 51.514 -78.246 40.414 C-78.789 27.361 -76.153 16.507 -68 6 C-67.622 5.46 -67.245 4.92 -66.855 4.363 C-60.372 -4.365 -49.958 -9.418 -39.504 -11.496 C-24.366 -13.458 -11.464 -10.077 0 0 Z M-57 17 C-62.464 25.334 -62.886 34.308 -62 44 C-60.169 51.832 -54.559 58.547 -48.188 63.312 C-40.487 67.92 -31.766 69.229 -23.086 67.379 C-13.392 64.618 -6.967 59.516 -1.438 51.125 C2.675 42.888 2.6 32.628 0.109 23.867 C-4.288 14.28 -11.49 9.023 -21 5 C-35.037 0.321 -47.677 6.603 -57 17 Z " fill="#22262E" transform="translate(187,47)"/>
<path d="M0 0 C4.95 0 9.9 0 15 0 C15 5.28 15 10.56 15 16 C15.634 15.994 15.634 15.994 18.84 15.965 C20.539 15.955 22.238 15.946 23.938 15.938 C24.768 15.929 25.599 15.921 26.455 15.912 C38.197 15.866 38.197 15.866 43 17 C45.125 19.188 45.125 19.188 46 22 C45.928 25.538 45.498 27.359 43.321 30.159 C40.332 32.53 38.702 32.465 34.922 32.391 C34.35 32.385 33.779 32.379 33.19 32.373 C31.376 32.351 29.564 32.301 27.75 32.25 C26.516 32.23 25.281 32.212 24.047 32.195 C21.031 32.151 18.015 32.082 15 32 C15.093 38.157 15.2 44.313 15.317 50.469 C15.356 52.562 15.39 54.655 15.422 56.749 C15.468 59.762 15.526 62.776 15.586 65.789 C15.597 66.721 15.609 67.652 15.621 68.612 C15.783 75.814 16.796 82.598 22 88 C27.203 91.372 32.375 93.024 38.547 93.316 C39.391 93.358 40.236 93.4 41.105 93.443 C41.978 93.483 42.851 93.522 43.75 93.562 C44.638 93.606 45.526 93.649 46.441 93.693 C48.627 93.799 50.814 93.9 53 94 C53 98.95 53 103.9 53 109 C49.228 109.109 45.46 109.188 41.688 109.25 C40.635 109.284 39.582 109.317 38.498 109.352 C27.957 109.481 19.23 106.878 11.074 100.055 C4.577 93.618 0.047 86.375 -0.241 77.083 C-0.246 75.645 -0.241 74.208 -0.227 72.77 C-0.227 71.979 -0.228 71.188 -0.228 70.373 C-0.227 67.781 -0.211 65.189 -0.195 62.598 C-0.192 60.792 -0.189 58.986 -0.187 57.18 C-0.179 52.443 -0.16 47.707 -0.137 42.971 C-0.117 38.131 -0.108 33.291 -0.098 28.451 C-0.076 18.967 -0.041 9.484 0 0 Z " fill="#22262E" transform="translate(298,20)"/>
<path d="M0 0 C0.027 2.313 0.047 4.625 0.062 6.938 C0.071 7.597 0.079 8.256 0.088 8.936 C0.097 10.624 0.052 12.312 0 14 C-1.786 15.786 -4.459 15.13 -6.871 15.141 C-8.098 15.159 -9.326 15.179 -10.553 15.199 C-12.481 15.228 -14.409 15.25 -16.338 15.25 C-25.458 15.267 -33.628 16.105 -40.701 22.55 C-45.083 27.231 -46.238 32.8 -46.319 39.097 C-46.329 39.674 -46.339 40.25 -46.349 40.844 C-46.38 42.726 -46.397 44.609 -46.414 46.492 C-46.433 47.806 -46.452 49.121 -46.473 50.435 C-46.524 53.877 -46.564 57.32 -46.601 60.762 C-46.641 64.282 -46.692 67.801 -46.742 71.32 C-46.839 78.213 -46.922 85.107 -47 92 C-52.28 92 -57.56 92 -63 92 C-63.091 84.384 -63.164 76.769 -63.207 69.153 C-63.228 65.615 -63.256 62.078 -63.302 58.54 C-63.346 55.116 -63.369 51.693 -63.38 48.269 C-63.387 46.973 -63.401 45.677 -63.423 44.381 C-63.621 32.141 -61.63 21.23 -53 12 C-38.363 -2.809 -19.223 -1.346 0 0 Z " fill="#22262E" transform="translate(284,37)"/>
<path d="M0 0 C6.798 0.598 12.948 2.305 19.438 4.375 C20.442 4.679 21.447 4.983 22.482 5.297 C23.436 5.599 24.389 5.9 25.371 6.211 C26.237 6.482 27.102 6.753 27.994 7.033 C28.656 7.352 29.318 7.671 30 8 C30.33 8.99 30.66 9.98 31 11 C28.022 12.107 25.042 13.21 22.062 14.312 C21.232 14.621 20.401 14.93 19.545 15.248 C15.397 16.782 11.24 18.289 7.059 19.73 C6.349 19.976 5.639 20.221 4.908 20.473 C3 21 3 21 0 21 C0.624 16.944 2.681 14.292 5 11 C3.894 8.702 2.719 6.547 1.375 4.375 C0 2 0 2 0 0 Z " fill="#536DFE" transform="translate(351,34)"/>
</svg>
